<svg width="73" height="73" viewBox="0 0 73 73" fill="none" xmlns="http://www.w3.org/2000/svg">
<rect x="18.5347" y="0.707031" width="56" height="56" rx="12" transform="rotate(15 18.5347 0.707031)" fill="#009FDA"/>
<rect x="0.333496" y="17" width="56" height="56" rx="12" fill="white" fill-opacity="0.3"/>
<rect x="0.833496" y="17.5" width="55" height="55" rx="11.5" stroke="white" stroke-opacity="0.3"/>
<path d="M26.0003 51.6016V54.3333C26.0003 55.6219 27.045 56.6666 28.3337 56.6666C29.6223 56.6666 30.667 55.6219 30.667 54.3332V51.6016M28.3337 33.3333V34.4999M17.8337 44.9999H16.667M20.7503 37.4166L20.0502 36.7165M35.917 37.4166L36.6173 36.7165M40.0003 44.9999H38.8337M35.3337 44.9999C35.3337 48.8659 32.1997 51.9999 28.3337 51.9999C24.4677 51.9999 21.3337 48.8659 21.3337 44.9999C21.3337 41.1339 24.4677 37.9999 28.3337 37.9999C32.1997 37.9999 35.3337 41.1339 35.3337 44.9999Z" stroke="white" stroke-width="2" stroke-linecap="round" stroke-linejoin="round"/>
</svg>
