<svg width="73" height="73" viewBox="0 0 73 73" fill="none" xmlns="http://www.w3.org/2000/svg">
<rect x="18.8677" y="0.707031" width="56" height="56" rx="12" transform="rotate(15 18.8677 0.707031)" fill="#0096FC"/>
<rect x="0.666504" y="17" width="56" height="56" rx="12" fill="white" fill-opacity="0.3"/>
<rect x="1.1665" y="17.5" width="55" height="55" rx="11.5" stroke="white" stroke-opacity="0.3"/>
<path d="M24 55.5V39.1667C24 38.0817 24 37.5392 24.1193 37.0941C24.4429 35.8863 25.3863 34.9429 26.5941 34.6193C27.0392 34.5 27.5817 34.5 28.6667 34.5C29.7516 34.5 30.2941 34.5 30.7392 34.6193C31.947 34.9429 32.8904 35.8863 33.2141 37.0941C33.3333 37.5392 33.3333 38.0817 33.3333 39.1667V55.5M20.7333 55.5H36.6C37.9068 55.5 38.5602 55.5 39.0593 55.2457C39.4984 55.022 39.8553 54.665 40.079 54.226C40.3333 53.7269 40.3333 53.0735 40.3333 51.7667V42.9C40.3333 41.5932 40.3333 40.9398 40.079 40.4407C39.8553 40.0016 39.4984 39.6447 39.0593 39.421C38.5602 39.1667 37.9068 39.1667 36.6 39.1667H20.7333C19.4265 39.1667 18.7731 39.1667 18.274 39.421C17.835 39.6447 17.478 40.0016 17.2543 40.4407C17 40.9398 17 41.5932 17 42.9V51.7667C17 53.0735 17 53.7269 17.2543 54.226C17.478 54.665 17.835 55.022 18.274 55.2457C18.7731 55.5 19.4265 55.5 20.7333 55.5Z" stroke="white" stroke-width="2" stroke-linecap="round" stroke-linejoin="round"/>
</svg>
