<svg width="73" height="73" viewBox="0 0 73 73" fill="none" xmlns="http://www.w3.org/2000/svg">
<rect x="18.2012" y="0.707031" width="56" height="56" rx="12" transform="rotate(15 18.2012 0.707031)" fill="#0096FC"/>
<rect y="17" width="56" height="56" rx="12" fill="white" fill-opacity="0.3"/>
<rect x="0.5" y="17.5" width="55" height="55" rx="11.5" stroke="white" stroke-opacity="0.3"/>
<path d="M32.6668 36.8333L36.1668 33.3333M36.1668 33.3333L39.6668 36.8333M36.1668 33.3333V40.3333M39.6668 44.9999V51.0666C39.6668 53.0268 39.6668 54.0069 39.2854 54.7556C38.9498 55.4141 38.4144 55.9495 37.7558 56.2851C37.0071 56.6666 36.027 56.6666 34.0668 56.6666H21.9335C19.9733 56.6666 18.9932 56.6666 18.2445 56.2851C17.586 55.9495 17.0505 55.4141 16.715 54.7556C16.3335 54.0069 16.3335 53.0268 16.3335 51.0666V38.9333C16.3335 36.9731 16.3335 35.993 16.715 35.2443C17.0505 34.5857 17.586 34.0503 18.2445 33.7147C18.9932 33.3333 19.9733 33.3333 21.9335 33.3333H28.0002M16.5033 54.2473C17.0506 52.2783 18.8565 50.8333 20.9999 50.8333H29.1666C30.2508 50.8333 30.7929 50.8333 31.2436 50.9229C33.0949 51.2912 34.542 52.7383 34.9102 54.5895C34.9999 55.0403 34.9999 55.5824 34.9999 56.6666M30.3335 42.0833C30.3335 44.6606 28.2442 46.7499 25.6668 46.7499C23.0895 46.7499 21.0002 44.6606 21.0002 42.0833C21.0002 39.5059 23.0895 37.4166 25.6668 37.4166C28.2442 37.4166 30.3335 39.5059 30.3335 42.0833Z" stroke="white" stroke-width="2" stroke-linecap="round" stroke-linejoin="round"/>
</svg>
